<svg width="31" height="25" viewBox="0 0 31 25" fill="none" xmlns="http://www.w3.org/2000/svg">
<path d="M0 3.03883C0 2.23288 0.320162 1.45994 0.890053 0.890053C1.45994 0.320162 2.23288 0 3.03883 0H27.3495C28.1554 0 28.9284 0.320162 29.4983 0.890053C30.0682 1.45994 30.3883 2.23288 30.3883 3.03883V21.2718C30.3883 22.0778 30.0682 22.8507 29.4983 23.4206C28.9284 23.9905 28.1554 24.3107 27.3495 24.3107H3.03883C2.23288 24.3107 1.45994 23.9905 0.890053 23.4206C0.320162 22.8507 0 22.0778 0 21.2718V3.03883ZM5.34683 3.03883L15.1942 11.6554L25.0415 3.03883H5.34683ZM27.3495 5.05814L16.1955 14.8189C15.9184 15.0616 15.5625 15.1955 15.1942 15.1955C14.8258 15.1955 14.4699 15.0616 14.1929 14.8189L3.03883 5.05814V21.2718H27.3495V5.05814Z" fill="white"/>
</svg>
