<svg width="31" height="31" viewBox="0 0 31 31" fill="none" xmlns="http://www.w3.org/2000/svg">
<path d="M3.18781 3.0056H9.83674L11.9795 8.44274L8.53657 10.7721C8.33382 10.9094 8.1676 11.0953 8.05264 11.3134C7.93769 11.5315 7.87757 11.7751 7.8776 12.0224C7.88204 12.1637 7.8776 12.0239 7.8776 12.0239V12.0555C7.87834 12.1227 7.88131 12.1898 7.88649 12.2568C7.89438 12.3811 7.91166 12.5464 7.93832 12.7528C7.99607 13.1585 8.10713 13.7176 8.32333 14.3758C8.7587 15.6983 9.61166 17.41 11.2731 19.0961C12.9346 20.7822 14.6213 21.6479 15.923 22.0897C16.573 22.3091 17.1224 22.4203 17.5252 22.4804C17.7524 22.5139 17.9813 22.534 18.2108 22.5405L18.2301 22.542H18.2419C18.2419 22.542 18.4078 22.533 18.2434 22.542C18.5184 22.5419 18.7878 22.4641 19.0216 22.3173C19.2555 22.1705 19.4444 21.9606 19.5673 21.711L20.5594 19.6972L27.1284 20.8093V27.3014C24.0024 27.7597 15.5587 28.2121 8.92455 21.4795C2.29042 14.747 2.73467 6.17651 3.18781 3.0056ZM10.9474 12.7528L13.6232 10.9434C14.1885 10.5607 14.607 9.99245 14.8084 9.33385C15.0098 8.67524 14.9819 7.96638 14.7294 7.32616L12.5866 1.88902C12.3668 1.33134 11.9873 0.853313 11.4971 0.516606C11.007 0.179899 10.4286 -4.02652e-05 9.83674 6.75843e-09H3.1108C1.76473 6.75843e-09 0.498617 0.948268 0.277973 2.43003C-0.22551 5.79931 -0.908173 15.7509 6.83065 23.6045C14.5695 31.4581 24.3755 30.7638 27.6956 30.2544C29.1557 30.029 30.0901 28.7456 30.0901 27.3795V20.8093C30.0902 20.0978 29.8415 19.4094 29.3884 18.8664C28.9353 18.3235 28.3071 17.9613 27.6156 17.8443L21.0466 16.7337C20.4219 16.6279 19.7801 16.7281 19.2156 17.0197C18.6511 17.3112 18.1936 17.7788 17.9102 18.3537L17.3979 19.3952C17.2168 19.3494 17.0375 19.2968 16.8603 19.2374C15.9422 18.9278 14.6672 18.2906 13.367 16.9711C12.0669 15.6517 11.439 14.3578 11.134 13.4245C11.062 13.2036 11.0003 12.9795 10.9488 12.7528H10.9474Z" fill="white"/>
</svg>
