<svg width="36" height="36" viewBox="0 0 36 36" fill="none" xmlns="http://www.w3.org/2000/svg">
<path d="M34.7143 18.0001C34.7143 22.433 32.9534 26.6843 29.8188 29.8188C26.6843 32.9534 22.433 34.7143 18.0001 34.7143C13.5671 34.7143 9.3158 32.9534 6.18127 29.8188C3.04673 26.6843 1.28577 22.433 1.28577 18.0001M34.7143 18.0001C34.7143 13.5671 32.9534 9.3158 29.8188 6.18127C26.6843 3.04673 22.433 1.28577 18.0001 1.28577C13.5671 1.28577 9.3158 3.04673 6.18127 6.18127C3.04673 9.3158 1.28577 13.5671 1.28577 18.0001M34.7143 18.0001H1.28577" stroke="white" stroke-width="3" stroke-linecap="round" stroke-linejoin="round"/>
<path d="M24.4287 18.0001C24.1129 24.1123 21.8616 29.9658 18.0001 34.7143C14.1386 29.9658 11.8873 24.1123 11.5715 18.0001C11.8873 11.8878 14.1386 6.0343 18.0001 1.28577C21.8616 6.0343 24.1129 11.8878 24.4287 18.0001Z" stroke="white" stroke-width="3" stroke-linecap="round" stroke-linejoin="round"/>
</svg>
